HIERARCHY
ROOT Hips
{
    OFFSET 0.000000 0.000000 0.000000
    CHANNELS 6 Xposition Yposition Zposition Zrotation Xrotation Yrotation
    JOINT Spine
    {
        OFFSET -0.000000 7.236184 0.000000
        CHANNELS 3 Zrotation Xrotation Yrotation
        JOINT Spine1
        {
            OFFSET -0.000000 20.420147 0.000000
            CHANNELS 3 Zrotation Xrotation Yrotation
            JOINT Neck
            {
                OFFSET -0.000000 20.336288 1.848754
                CHANNELS 3 Zrotation Xrotation Yrotation
                JOINT Head
                {
                    OFFSET -0.000000 12.354461 -1.764923
                    CHANNELS 3 Zrotation Xrotation Yrotation
                    End Site
                    {
                        OFFSET -0.000000 22.061537 0.000000
                    }
                }
            }
            JOINT LeftShoulder
            {
                OFFSET 3.573296 18.396038 -0.314103
                CHANNELS 3 Zrotation Xrotation Yrotation
                JOINT LeftArm
                {
                    OFFSET 10.880760 0.000000 0.000000
                    CHANNELS 3 Zrotation Xrotation Yrotation
                    JOINT LeftForeArm
                    {
                        OFFSET 27.185530 0.000000 0.000000
                        CHANNELS 3 Zrotation Xrotation Yrotation
                        JOINT LeftHand
                        {
                            OFFSET 27.825975 0.000000 0.000000
                            CHANNELS 3 Zrotation Xrotation Yrotation
                            End Site
                            {
                                OFFSET 13.236923 0.000000 0.000000
                            }
                        }
                    }
                }
            }
            JOINT RightShoulder
            {
                OFFSET -3.474926 18.396038 -0.314103
                CHANNELS 3 Zrotation Xrotation Yrotation
                JOINT RightArm
                {
                    OFFSET -10.880760 0.000000 0.000000
                    CHANNELS 3 Zrotation Xrotation Yrotation
                    JOINT RightForeArm
                    {
                        OFFSET -27.185530 0.000000 0.000000
                        CHANNELS 3 Zrotation Xrotation Yrotation
                        JOINT RightHand
                        {
                            OFFSET -27.825975 0.000000 0.000000
                            CHANNELS 3 Zrotation Xrotation Yrotation
                            End Site
                            {
                                OFFSET -13.236923 0.000000 0.000000
                            }
                        }
                    }
                }
            }
        }
    }
    JOINT LeftUpLeg
    {
        OFFSET 8.824615 0.000000 0.000000
        CHANNELS 3 Zrotation Xrotation Yrotation
        JOINT LeftLeg
        {
            OFFSET -0.000000 -35.111282 0.000000
            CHANNELS 3 Zrotation Xrotation Yrotation
            JOINT LeftFoot
            {
                OFFSET -0.000000 -42.324711 0.000000
                CHANNELS 3 Zrotation Xrotation Yrotation
                JOINT LeftToeBase
                {
                    OFFSET -0.000000 -5.735999 13.236923
                    CHANNELS 3 Zrotation Xrotation Yrotation
                    End Site
                    {
                        OFFSET -0.000000 0.000000 3.529846
                    }
                }
            }
        }
    }
    JOINT RightUpLeg
    {
        OFFSET -8.824615 0.000000 0.000000
        CHANNELS 3 Zrotation Xrotation Yrotation
        JOINT RightLeg
        {
            OFFSET -0.000000 -35.111282 0.000000
            CHANNELS 3 Zrotation Xrotation Yrotation
            JOINT RightFoot
            {
                OFFSET -0.000000 -42.324711 0.000000
                CHANNELS 3 Zrotation Xrotation Yrotation
                JOINT RightToeBase
                {
                    OFFSET -0.000000 -5.735999 13.236923
                    CHANNELS 3 Zrotation Xrotation Yrotation
                    End Site
                    {
                        OFFSET -0.000000 0.000000 3.529846
                    }
                }
            }
        }
    }
}
MOTION
Frames:    10
Frame Time:    0.008333
-19.014427    81.428268    107.428375    -1.884088    -9.351904    178.252792    -1.192334    -8.552291    1.003232    -0.576872    1.767451    1.101252    5.396784    8.839345    7.656857    6.190778    -24.996685    9.769295    -3.406388    17.646761    0.814414    -46.603657    39.845867    -38.710026    21.287062    -13.574377    -42.873150    36.400833    -7.580573    -7.199006    9.974577    16.541235    -8.404663    39.462044    44.695343    40.778767    -22.033384    -12.527944    46.410606    -37.586483    -5.049075    5.908978    1.620502    -22.698553    -4.452561    -2.016083    33.818848    13.102302    -8.766944    -14.700163    -17.448763    1.472572    -0.985170    -1.635199    -8.960967    -23.942471    -8.371470    18.305258    45.977013    -14.964108    6.353943    -3.957848    -13.609746    -1.366422    -7.773332    1.494901
-19.048660    81.318535    107.425797    -1.875675    -9.283479    178.189957    -1.307755    -8.596235    1.100701    -0.697755    2.001020    1.211179    5.177784    8.856592    7.153509    6.279629    -25.326805    9.311782    -3.375084    17.627720    0.798393    -46.655449    39.510075    -38.496670    21.041012    -13.317780    -41.831810    36.419636    -7.695154    -7.362495    9.947892    16.550327    -8.367324    39.453739    44.391434    40.651569    -21.829554    -12.379632    45.797565    -37.758621    -5.160126    5.972013    1.647383    -22.836279    -4.288010    -2.033770    34.214649    13.194336    -8.734914    -14.843078    -17.579525    1.479907    -1.015463    -1.643434    -9.118536    -23.861692    -8.278545    18.620468    46.032455    -15.245987    6.527612    -4.084148    -13.333418    -1.379099    -7.876022    1.509016
-19.068573    81.235695    107.424019    -1.847650    -9.237504    178.124619    -1.409669    -8.642027    1.184446    -0.781088    2.200556    1.305999    4.985113    8.886633    6.668216    6.323264    -25.625624    8.854247    -3.328483    17.578663    0.812120    -46.801861    39.008598    -38.097408    20.770109    -13.094415    -40.872986    36.453346    -7.815681    -7.481417    9.902745    16.552828    -8.367240    39.627464    43.907928    40.293812    -21.585306    -12.231882    45.193882    -37.946289    -5.280055    6.020861    1.704257    -22.943983    -4.090617    -2.017425    34.519302    13.213764    -8.705045    -14.956142    -17.676943    1.489992    -1.031695    -1.654683    -9.304229    -23.825241    -8.236558    18.918919    46.121635    -15.467516    6.749179    -4.140848    -13.003231    -1.391143    -7.927654    1.522319
-19.077354    81.168678    107.421852    -1.797440    -9.204703    178.050369    -1.508014    -8.693278    1.264422    -0.849248    2.390593    1.396767    4.795650    8.931206    6.140059    6.332148    -25.924788    8.340161    -3.256743    17.496084    0.857171    -47.049797    38.282063    -37.481876    20.445662    -12.866301    -39.881538    36.499821    -7.945669    -7.579823    9.840865    16.549139    -8.400699    39.982586    43.193710    39.683960    -21.273449    -12.069613    44.531071    -38.161621    -5.423409    6.065321    1.794721    -23.033773    -3.844992    -1.967550    34.775074    13.172874    -8.677994    -15.052534    -17.757280    1.501872    -1.041628    -1.667905    -9.536319    -23.819336    -8.247436    19.222256    46.249546    -15.650963    7.036405    -4.139520    -12.585687    -1.403309    -7.938185    1.535658
-19.072676    81.126068    107.418648    -1.727096    -9.187489    177.974991    -1.595054    -8.744978    1.331649    -0.890803    2.553135    1.473425    4.615707    8.983727    5.613480    6.312639    -26.189089    7.815071    -3.167611    17.381466    0.932159    -47.372227    37.368927    -36.694702    20.096165    -12.644569    -38.958794    36.547192    -8.061511    -7.652786    9.761374    16.537870    -8.468662    40.491093    42.284538    38.869415    -20.919847    -11.904185    43.874302    -38.375950    -5.572850    6.105000    1.912437    -23.093184    -3.577076    -1.887526    34.952690    13.075448    -8.660071    -15.119562    -17.812374    1.512937    -1.046672    -1.680209    -9.794096    -23.840561    -8.325572    19.483696    46.403744    -15.764420    7.360348    -4.078463    -12.118808    -1.412027    -7.905893    1.545118
-19.055428    81.106972    107.413780    -1.639712    -9.183045    177.902252    -1.668948    -8.795266    1.385039    -0.909278    2.687492    1.534673    4.442730    9.038912    5.101210    6.274646    -26.408710    7.294997    -3.064232    17.238834    1.032193    -47.734013    36.303589    -35.786419    19.738554    -12.423628    -38.129532    36.579853    -8.148690    -7.708619    9.665727    16.518362    -8.565956    41.105091    41.213772    37.908909    -20.543859    -11.735917    43.248524    -38.573261    -5.714917    6.143007    2.051543    -23.122009    -3.305083    -1.787280    35.055550    12.937774    -8.652950    -15.157253    -17.843393    1.522202    -1.049273    -1.690506    -10.064380    -23.878500    -8.470665    19.681625    46.572884    -15.800220    7.698707    -3.972341    -11.631016    -1.413894    -7.842652    1.547006
-19.024534    81.108803    107.406494    -1.530323    -9.189099    177.828232    -1.735078    -8.846828    1.428865    -0.909652    2.804347    1.585321    4.259960    9.097600    4.567513    6.221464    -26.594660    6.745749    -2.938287    17.057148    1.161560    -48.130215    35.020176    -34.720009    19.357822    -12.179859    -37.336681    36.582905    -8.203425    -7.760033    9.544872    16.487761    -8.696523    41.834736    39.908157    36.767414    -20.128765    -11.546757    42.617275    -38.758400    -5.848387    6.186633    2.220430    -23.123236    -3.020705    -1.668786    35.095730    12.763450    -8.656495    -15.169125    -17.853493    1.530236    -1.050551    -1.699433    -10.360631    -23.928230    -8.694304    19.814070    46.762238    -15.752275    8.060857    -3.826934    -11.107687    -1.406072    -7.751820    1.538226
-18.977917    81.133270    107.396317    -1.397617    -9.206520    177.753052    -1.793678    -8.900067    1.462614    -0.892171    2.902467    1.624820    4.060851    9.158086    4.008833    6.156036    -26.739897    6.164622    -2.785449    16.829357    1.322368    -48.529408    33.498543    -33.498199    18.961033    -11.905152    -36.584793    36.537960    -8.214664    -7.812200    9.391049    16.442507    -8.862320    42.662807    38.332939    35.448952    -19.679750    -11.327077    41.986588    -38.922523    -5.960362    6.240118    2.422126    -23.095098    -2.732119    -1.539167    35.068962    12.560717    -8.672582    -15.152260    -17.840273    1.537435    -1.051991    -1.707432    -10.682776    -23.986032    -9.005917    19.858610    46.968147    -15.600427    8.434572    -3.652372    -10.568805    -1.385818    -7.633758    1.515787
-18.919912    81.176987    107.384315    -1.257906    -9.233861    177.684677    -1.839333    -8.949030    1.483366    -0.862261    2.970171    1.649610    3.861725    9.213374    3.485620    6.092863    -26.827902    5.617565    -2.619251    16.577204    1.496321    -48.855556    31.915363    -32.269650    18.601585    -11.628933    -35.960468    36.439919    -8.177353    -7.860236    9.216337    16.384548    -9.043166    43.472145    36.655998    34.115623    -19.255995    -11.095992    41.437496    -39.043713    -6.027546    6.297666    2.633651    -23.042894    -2.478417    -1.419785    34.980968    12.362566    -8.700644    -15.108328    -17.805849    1.543423    -1.053199    -1.714086    -10.992996    -24.041533    -9.369053    19.796503    47.161255    -15.350676    8.762994    -3.484873    -10.103105    -1.354206    -7.506774    1.480913
-18.844648    81.241806    107.369576    -1.099519    -9.273917    177.614670    -1.879761    -8.998854    1.495449    -0.820905    3.015854    1.664992    3.638379    9.268452    2.939100    6.028662    -26.871046    5.044873    -2.420340    16.273710    1.699071    -49.108875    30.120867    -30.925180    18.247656    -11.321816    -35.383678    36.277229    -8.090517    -7.912863    8.997804    16.305967    -9.254678    44.312157    34.707352    32.653690    -18.821573    -10.824860    40.909538    -39.134148    -6.051547    6.367249    2.874479    -22.966705    -2.234125    -1.301121    34.832268    12.155751    -8.744568    -15.035200    -17.750507    1.549426    -1.055113    -1.720758    -11.323071    -24.097454    -9.809560    19.621349    47.354256    -14.978822    9.066921    -3.324156    -9.690375    -1.308565    -7.367510    1.430689
